# xmcd
#
# Track frame offsets: 
#        150
#        20070
#        40100
#        57297
#        97580
#        127485
#        146700
#        190350
#
# Disc length: 3029 seconds
#
# Revision: 0
# Processed by: cddbd v1.4PL0 Copyright (c) Steve Scherf et al.
# Submitted via: ExactAudioCopy v0.90b4
#
DISCID=720bd308
DTITLE=Van Morrison - Paying
DYEAR=2003
DGENRE=Celtic
TTITLE0=Raglan Road
TTITLE1=Moondance
TTITLE2=Have I Told You Lately
TTITLE3=In The Afternoon > Raincheck
TTITLE4=Listen To The Lion
TTITLE5=Precious Time
TTITLE6=It's All In The Game
TTITLE7=Did Ye Get Healed > Yeh Yeh
EXTD=
EXTT0=
EXTT1=
EXTT2=
EXTT3=
EXTT4=
EXTT5=
EXTT6=
EXTT7=
PLAYORDER=
